<svg xmlns="http://www.w3.org/2000/svg" viewBox="0 0 400.79 400"><defs><style>.cls-1{fill:none;stroke:#14489f;stroke-linecap:round;stroke-width:35px;}</style></defs><g id="Layer_2" data-name="Layer 2"><g id="Layer_1-2" data-name="Layer 1"><path class="cls-1" d="M256.45,22.92s-28.83-11.75-87.77-.65c-27.55,5.2-56.74,16.63-77.41,38-49.54,51.25-43.33,133.56,14,183.86,41.85,36.73,127.25,38,126,1.71-1.28-36.73-40-12.6-75-28C108.86,197,96.92,145.49,134.73,98.51,161.1,65.73,212,61.78,262.85,75a156.39,156.39,0,0,1,96.95,73.47c21.66,37.56,21.78,57.22,23.49,79.43"/><path class="cls-1" d="M144.35,377.08s28.82,11.75,87.76.65c27.55-5.2,56.74-16.63,77.41-38,49.55-51.25,43.33-133.56-14-183.86-41.86-36.73-127.26-38-126-1.71,1.29,36.73,40,12.6,75,28,47.43,20.88,59.37,72.39,21.57,119.37-26.38,32.78-77.31,36.73-128.13,23.49A156.39,156.39,0,0,1,41,251.51C19.33,214,19.21,194.29,17.5,172.08"/></g></g></svg>