<svg viewBox="0 0 400.79 400" xmlns="http://www.w3.org/2000/svg"><g fill="none" stroke="#14489f" stroke-linecap="round" stroke-width="35"><path d="M256.45 22.92s-28.83-11.75-87.77-.65c-27.55 5.2-56.74 16.63-77.41 38-49.54 51.25-43.33 133.56 14 183.86 41.85 36.73 127.25 38 126 1.71-1.28-36.73-40-12.6-75-28-47.41-20.84-59.35-72.35-21.54-119.33C161.1 65.73 212 61.78 262.85 75a156.39 156.39 0 0 1 96.95 73.47c21.66 37.56 21.78 57.22 23.49 79.43"/><path d="M144.35 377.08s28.82 11.75 87.76.65c27.55-5.2 56.74-16.63 77.41-38 49.55-51.25 43.33-133.56-14-183.86-41.86-36.73-127.26-38-126-1.71 1.29 36.73 40 12.6 75 28 47.43 20.88 59.37 72.39 21.57 119.37-26.38 32.78-77.31 36.73-128.13 23.49A156.39 156.39 0 0 1 41 251.51C19.33 214 19.21 194.29 17.5 172.08"/></g></svg>